<?xml version="1.0" encoding="utf-8"?>
<!-- Generator: Adobe Illustrator 26.0.2, SVG Export Plug-In . SVG Version: 6.00 Build 0)  -->
<svg version="1.1" id="Layer_1" xmlns="http://www.w3.org/2000/svg" xmlns:xlink="http://www.w3.org/1999/xlink" x="0px" y="0px"
	 viewBox="0 0 482 482" style="enable-background:new 0 0 482 482;" xml:space="preserve">
<path d="M147.7,380.3l-51.3-93.6H55.6v93.6H0V119h122.2c54.4,0,87.7,35.6,87.7,84.2c0,46.2-29,70.9-57.2,77.6l58.8,99.5H147.7z
	 M114,166.8H55.6v72.1H114c22.3,0,39.2-14.1,39.2-36S136.3,166.8,114,166.8z M231.5,249.9c0-80.3,60.7-135.1,137.1-135.1
	c59.5,0,92.8,31.3,111.2,63.9l-47.8,23.5c-11-21.2-34.5-38-63.5-38c-45.4,0-79.9,36.4-79.9,85.8c0,49.4,34.5,85.8,79.9,85.8
	c29,0,52.5-16.5,63.5-38l47.8,23.1C461,353.3,428.1,385,368.6,385C292.2,385,231.5,330.2,231.5,249.9z"/>
</svg>
